<svg data-v-fde0c5aa="" xmlns="http://www.w3.org/2000/svg" viewBox="0 0 300 300" class="iconLeftSlogan"><!----><defs data-v-fde0c5aa=""><!----></defs><rect data-v-fde0c5aa="" fill="#A3C564" x="0" y="0" width="300px" height="300px" class="logo-background-square"></rect><defs data-v-fde0c5aa=""><!----></defs><g data-v-fde0c5aa="" id="1d2d9278-522b-4580-bd56-6502b816fc70" fill="#FFFFFF" transform="matrix(1.9004179948833746,0,0,1.9004179948833746,104.37477852525852,123.58989063230587)"><path d="M4.91 14.11L0.41 14.11L0.41 13.59L0.41 13.59Q0.83 13.57 1.06 13.52L1.06 13.52L1.06 13.52Q1.29 13.48 1.48 13.34L1.48 13.34L1.48 13.34Q1.67 13.20 1.67 12.95L1.67 12.95L1.67 12.95Q1.67 12.94 1.67 12.66L1.67 12.66L1.67 12.66Q1.68 12.38 1.68 11.91L1.68 11.91L1.68 11.91Q1.68 11.45 1.69 10.88L1.69 10.88L1.69 10.88Q1.69 10.32 1.70 9.60L1.70 9.60L1.70 9.60Q1.71 8.88 1.71 8.22L1.71 8.22L1.71 8.22Q1.71 6.29 1.67 4.86L1.67 4.86L1.67 4.86Q1.65 4.55 1.45 4.45L1.45 4.45L1.45 4.45Q1.25 4.34 0.71 4.31L0.71 4.31L0.50 4.30L0.50 3.78L0.50 3.78Q1.29 3.84 2.45 3.84L2.45 3.84L2.45 3.84Q3.56 3.84 4.20 3.79L4.20 3.79L7.53 3.78L7.70 3.93L7.70 3.93Q7.67 4.05 7.50 5.21L7.50 5.21L7.50 5.21Q7.34 6.37 7.32 6.52L7.32 6.52L6.85 6.52L6.85 6.52Q6.58 5.10 6.54 5.01L6.54 5.01L6.54 5.01Q6.45 4.75 6.31 4.65L6.31 4.65L6.31 4.65Q6.20 4.62 5.80 4.56L5.80 4.56L5.80 4.56Q5.46 4.52 4.38 4.52L4.38 4.52L4.38 4.52Q3.74 4.52 3.49 4.61L3.49 4.61L3.49 4.61Q3.23 4.70 3.22 5.00L3.22 5.00L3.22 5.00Q3.16 8.08 3.16 8.33L3.16 8.33L3.16 8.33Q5.15 8.33 6.62 8.26L6.62 8.26L6.48 9.30L6.23 9.30L6.23 9.30Q5.98 9.11 5.33 9.03L5.33 9.03L5.33 9.03Q4.69 8.95 3.95 8.94L3.95 8.94L3.95 8.94Q3.21 8.93 3.16 8.93L3.16 8.93L3.16 8.93Q3.12 12.04 3.12 12.95L3.12 12.95L3.12 12.95Q3.12 13.20 3.30 13.34L3.30 13.34L3.30 13.34Q3.49 13.47 3.72 13.52L3.72 13.52L3.72 13.52Q3.95 13.57 4.38 13.59L4.38 13.59L4.91 13.64L4.91 14.11ZM8.04 12.42L8.04 12.42L8.04 12.42Q8.04 11.93 8.13 11.55L8.13 11.55L8.13 11.55Q8.23 11.17 8.46 10.92L8.46 10.92L8.46 10.92Q8.68 10.67 8.90 10.50L8.90 10.50L8.90 10.50Q9.13 10.33 9.54 10.21L9.54 10.21L9.54 10.21Q9.95 10.09 10.25 10.03L10.25 10.03L10.25 10.03Q10.56 9.97 11.10 9.86L11.10 9.86L11.10 9.86Q11.65 9.76 11.98 9.69L11.98 9.69L11.98 9.69Q11.98 9.49 11.99 9.20L11.99 9.20L11.99 9.20Q12.00 8.90 12.00 8.85L12.00 8.85L12.00 8.85Q12.00 8.20 11.54 7.92L11.54 7.92L11.54 7.92Q11.07 7.64 10.47 7.64L10.47 7.64L10.47 7.64Q9.77 7.64 9.52 7.97L9.52 7.97L9.52 7.97Q9.27 8.30 8.97 9.38L8.97 9.38L8.40 9.32L8.40 9.32Q8.40 9.28 8.41 9.04L8.41 9.04L8.41 9.04Q8.41 8.79 8.45 8.60L8.45 8.60L8.45 8.60Q8.48 8.41 8.56 8.12L8.56 8.12L8.56 8.12Q8.64 7.83 8.83 7.61L8.83 7.61L8.83 7.61Q9.02 7.39 9.30 7.18L9.30 7.18L9.30 7.18Q9.58 6.97 10.04 6.86L10.04 6.86L10.04 6.86Q10.50 6.75 11.10 6.75L11.10 6.75L11.10 6.75Q11.72 6.75 12.15 6.89L12.15 6.89L12.15 6.89Q12.59 7.03 12.80 7.20L12.80 7.20L12.80 7.20Q13.02 7.38 13.14 7.68L13.14 7.68L13.14 7.68Q13.26 7.98 13.27 8.16L13.27 8.16L13.27 8.16Q13.29 8.34 13.29 8.62L13.29 8.62L13.29 8.62Q13.29 9.69 13.26 10.90L13.26 10.90L13.26 10.90Q13.23 12.11 13.23 12.32L13.23 12.32L13.23 12.32Q13.23 12.67 13.54 13.17L13.54 13.17L13.54 13.17Q13.86 13.66 13.86 13.75L13.86 13.75L13.86 13.75Q13.86 13.82 13.73 13.86L13.73 13.86L13.73 13.86Q12.75 14.18 12.66 14.18L12.66 14.18L12.66 14.18Q12.52 14.18 12.40 13.98L12.40 13.98L12.40 13.98Q12.28 13.78 12.18 13.48L12.18 13.48L12.18 13.48Q12.08 13.19 12.07 13.17L12.07 13.17L12.07 13.17Q11.86 13.31 11.55 13.52L11.55 13.52L11.55 13.52Q11.24 13.73 11.12 13.81L11.12 13.81L11.12 13.81Q11.00 13.89 10.79 14L10.79 14L10.79 14Q10.57 14.11 10.40 14.15L10.40 14.15L10.40 14.15Q10.23 14.20 9.98 14.22L9.98 14.22L9.98 14.22Q9.73 14.25 9.41 14.25L9.41 14.25L9.41 14.25Q8.68 14.25 8.36 13.72L8.36 13.72L8.36 13.72Q8.04 13.19 8.04 12.42ZM9.30 12.28L9.30 12.28L9.30 12.28Q9.30 13.31 10.23 13.31L10.23 13.31L10.23 13.31Q11.06 13.31 11.90 12.61L11.90 12.61L11.90 12.61Q12.00 12.53 12.00 11.42L12.00 11.42L12.00 11.42Q12.00 10.65 11.98 10.23L11.98 10.23L11.98 10.23Q11.73 10.32 11.35 10.44L11.35 10.44L11.35 10.44Q10.96 10.57 10.80 10.63L10.80 10.63L10.80 10.63Q10.64 10.68 10.37 10.77L10.37 10.77L10.37 10.77Q10.11 10.86 10.02 10.92L10.02 10.92L10.02 10.92Q9.93 10.98 9.77 11.06L9.77 11.06L9.77 11.06Q9.60 11.14 9.56 11.22L9.56 11.22L9.56 11.22Q9.52 11.30 9.44 11.40L9.44 11.40L9.44 11.40Q9.35 11.51 9.34 11.64L9.34 11.64L9.34 11.64Q9.32 11.77 9.31 11.92L9.31 11.92L9.31 11.92Q9.30 12.07 9.30 12.28ZM18.44 14.11L14.52 14.11L14.52 13.64L14.52 13.64Q14.85 13.59 14.97 13.59L14.97 13.59L14.97 13.59Q15.08 13.58 15.25 13.50L15.25 13.50L15.25 13.50Q15.43 13.43 15.46 13.36L15.46 13.36L15.46 13.36Q15.48 13.30 15.54 13.09L15.54 13.09L15.54 13.09Q15.60 12.88 15.60 12.67L15.60 12.67L15.60 12.67Q15.60 12.46 15.60 12.03L15.60 12.03L15.60 11.56L15.60 11.56Q15.60 8.75 15.50 8.26L15.50 8.26L15.50 8.26Q15.40 7.77 14.83 7.73L14.83 7.73L14.83 7.73Q14.74 7.71 14.69 7.71L14.69 7.71L14.66 7.18L14.66 7.18Q15.22 7.13 15.81 6.92L15.81 6.92L15.81 6.92Q16.39 6.71 16.55 6.71L16.55 6.71L16.55 6.71Q16.73 6.71 16.80 6.87L16.80 6.87L16.80 6.87Q16.87 7.03 16.87 7.45L16.87 7.45L16.88 7.98L16.88 7.98Q18.12 6.79 18.83 6.79L18.83 6.79L18.83 6.79Q19.35 6.79 19.54 6.92L19.54 6.92L19.54 6.92Q19.74 7.04 19.74 7.38L19.74 7.38L19.74 7.38Q19.74 7.49 19.52 8.89L19.52 8.89L19.01 8.89L19.01 8.89Q18.94 7.84 18.30 7.84L18.30 7.84L18.30 7.84Q17.93 7.84 17.41 8.17L17.41 8.17L17.41 8.17Q16.88 8.50 16.88 9.04L16.88 9.04L16.88 9.04Q16.88 9.44 16.88 11.01L16.88 11.01L16.88 11.01Q16.87 12.59 16.87 12.84L16.87 12.84L16.87 12.84Q16.87 13.27 17.12 13.40L17.12 13.40L17.12 13.40Q17.37 13.54 18.30 13.66L18.30 13.66L18.30 13.66Q18.40 13.68 18.44 13.68L18.44 13.68L18.44 14.11ZM20.22 7.74L20.19 7.21L20.19 7.21Q20.75 7.15 21.34 6.94L21.34 6.94L21.34 6.94Q21.92 6.73 22.08 6.73L22.08 6.73L22.08 6.73Q22.26 6.73 22.33 6.89L22.33 6.89L22.33 6.89Q22.40 7.04 22.40 7.48L22.40 7.48L22.40 7.67L22.40 7.67Q22.48 7.63 22.73 7.49L22.73 7.49L22.73 7.49Q22.97 7.35 23.08 7.29L23.08 7.29L23.08 7.29Q23.18 7.24 23.39 7.13L23.39 7.13L23.39 7.13Q23.59 7.01 23.72 6.96L23.72 6.96L23.72 6.96Q23.84 6.92 24.02 6.85L24.02 6.85L24.02 6.85Q24.19 6.79 24.34 6.77L24.34 6.77L24.34 6.77Q24.49 6.75 24.63 6.75L24.63 6.75L24.63 6.75Q25.44 6.75 26.38 7.74L26.38 7.74L26.38 7.74Q27.73 6.75 28.71 6.75L28.71 6.75L28.71 6.75Q29.29 6.75 29.67 7.08L29.67 7.08L29.67 7.08Q30.06 7.42 30.18 7.76L30.18 7.76L30.18 7.76Q30.30 8.11 30.30 8.40L30.30 8.40L30.30 8.40Q30.30 9.39 30.28 10.60L30.28 10.60L30.28 10.60Q30.27 11.80 30.27 12.05L30.27 12.05L30.27 12.05Q30.27 13.16 30.39 13.38L30.39 13.38L30.39 13.38Q30.51 13.61 31.00 13.64L31.00 13.64L31.00 13.64Q31.07 13.64 31.09 13.64L31.09 13.64L31.09 14.11L28.24 14.11L28.24 13.64L28.24 13.64Q28.77 13.61 28.90 13.42L28.90 13.42L28.90 13.42Q29.04 13.23 29.04 12.56L29.04 12.56L29.04 12.56Q29.04 12.38 29.03 11.26L29.03 11.26L29.03 11.26Q29.02 10.15 29.02 9.13L29.02 9.13L29.02 9.13Q29.02 8.72 28.99 8.53L28.99 8.53L28.99 8.53Q28.97 8.33 28.85 8.13L28.85 8.13L28.85 8.13Q28.74 7.92 28.48 7.85L28.48 7.85L28.48 7.85Q28.21 7.78 27.76 7.78L27.76 7.78L27.76 7.78Q27.37 7.78 26.36 8.32L26.36 8.32L26.36 8.32Q26.35 10.14 26.35 12.05L26.35 12.05L26.35 12.05Q26.35 12.36 26.36 12.57L26.36 12.57L26.36 12.57Q26.38 12.78 26.38 12.95L26.38 12.95L26.38 12.95Q26.38 13.12 26.43 13.22L26.43 13.22L26.43 13.22Q26.49 13.33 26.49 13.39L26.49 13.39L26.49 13.39Q26.50 13.45 26.61 13.50L26.61 13.50L26.61 13.50Q26.71 13.54 26.73 13.55L26.73 13.55L26.73 13.55Q26.75 13.57 26.92 13.59L26.92 13.59L26.92 13.59Q27.09 13.62 27.15 13.64L27.15 13.64L27.15 14.11L24.29 14.11L24.29 13.64L24.29 13.64Q24.81 13.61 24.93 13.42L24.93 13.42L24.93 13.42Q25.05 13.23 25.05 12.61L25.05 12.61L25.05 12.61Q25.05 10.99 25.05 9.90L25.05 9.90L25.05 9.90Q25.06 8.81 25.06 8.67L25.06 8.67L25.06 8.67Q25.06 8.22 24.80 8.00L24.80 8.00L24.80 8.00Q24.54 7.78 23.81 7.78L23.81 7.78L23.81 7.78Q23.53 7.78 23.11 7.96L23.11 7.96L23.11 7.96Q22.69 8.13 22.43 8.30L22.43 8.30L22.43 8.30Q22.33 11.48 22.33 12.10L22.33 12.10L22.33 12.10Q22.33 12.45 22.33 12.66L22.33 12.66L22.33 12.66Q22.33 12.88 22.36 13.05L22.36 13.05L22.36 13.05Q22.40 13.22 22.41 13.29L22.41 13.29L22.41 13.29Q22.43 13.37 22.52 13.44L22.52 13.44L22.52 13.44Q22.61 13.51 22.65 13.52L22.65 13.52L22.65 13.52Q22.69 13.52 22.86 13.57L22.86 13.57L22.86 13.57Q23.03 13.61 23.11 13.64L23.11 13.64L23.11 14.11L20.26 14.11L20.26 13.64L20.26 13.64Q20.72 13.61 20.89 13.47L20.89 13.47L20.89 13.47Q21.07 13.33 21.07 13.05L21.07 13.05L21.07 13.05Q21.07 11.09 21.06 10.15L21.06 10.15L21.06 10.15Q21.06 9.21 21.03 8.67L21.03 8.67L21.03 8.67Q21 8.13 20.97 8.05L20.97 8.05L20.97 8.05Q20.94 7.97 20.86 7.90L20.86 7.90L20.85 7.88L20.85 7.88Q20.75 7.80 20.22 7.74L20.22 7.74ZM34.78 3.93L34.78 3.93L34.93 3.78L43.13 3.78L43.29 3.93L43.29 3.93Q43.22 5.12 43.22 6.69L43.22 6.69L42.73 6.69L42.73 6.69Q42.36 5.38 42.25 5.15L42.25 5.15L42.25 5.15Q42.20 4.98 42.13 4.84L42.13 4.84L42.13 4.84Q42.03 4.75 41.87 4.72L41.87 4.72L41.87 4.72Q41.15 4.58 40.40 4.58L40.40 4.58L40.40 4.58Q40.17 4.58 39.82 4.65L39.82 4.65L39.82 4.65Q39.70 7.29 39.70 12.95L39.70 12.95L39.70 12.95Q39.70 13.20 39.96 13.35L39.96 13.35L39.96 13.35Q40.22 13.50 40.49 13.54L40.49 13.54L40.49 13.54Q40.75 13.58 41.22 13.62L41.22 13.62L41.22 14.11L36.74 14.11L36.74 13.62L36.74 13.62Q37.07 13.59 37.27 13.57L37.27 13.57L37.27 13.57Q37.48 13.54 37.73 13.47L37.73 13.47L37.73 13.47Q37.98 13.40 38.11 13.27L38.11 13.27L38.11 13.27Q38.23 13.15 38.23 12.95L38.23 12.95L38.23 12.95Q38.28 10.23 38.28 7.63L38.28 7.63L38.28 7.63Q38.28 5.49 38.25 4.65L38.25 4.65L38.25 4.65Q37.90 4.58 37.66 4.58L37.66 4.58L37.66 4.58Q36.92 4.58 36.19 4.72L36.19 4.72L36.19 4.72Q36.04 4.75 35.94 4.84L35.94 4.84L35.94 4.84Q35.87 4.98 35.81 5.15L35.81 5.15L35.81 5.15Q35.70 5.38 35.34 6.69L35.34 6.69L34.85 6.69L34.85 6.69Q34.85 5.12 34.78 3.93ZM47.56 14.11L43.64 14.11L43.64 13.64L43.64 13.64Q43.97 13.59 44.09 13.59L44.09 13.59L44.09 13.59Q44.20 13.58 44.37 13.50L44.37 13.50L44.37 13.50Q44.55 13.43 44.58 13.36L44.58 13.36L44.58 13.36Q44.60 13.30 44.66 13.09L44.66 13.09L44.66 13.09Q44.72 12.88 44.72 12.67L44.72 12.67L44.72 12.67Q44.72 12.46 44.72 12.03L44.72 12.03L44.72 11.56L44.72 11.56Q44.72 8.75 44.62 8.26L44.62 8.26L44.62 8.26Q44.52 7.77 43.95 7.73L43.95 7.73L43.95 7.73Q43.86 7.71 43.81 7.71L43.81 7.71L43.78 7.18L43.78 7.18Q44.34 7.13 44.93 6.92L44.93 6.92L44.93 6.92Q45.51 6.71 45.67 6.71L45.67 6.71L45.67 6.71Q45.85 6.71 45.92 6.87L45.92 6.87L45.92 6.87Q45.99 7.03 45.99 7.45L45.99 7.45L46.00 7.98L46.00 7.98Q47.24 6.79 47.95 6.79L47.95 6.79L47.95 6.79Q48.47 6.79 48.66 6.92L48.66 6.92L48.66 6.92Q48.86 7.04 48.86 7.38L48.86 7.38L48.86 7.38Q48.86 7.49 48.64 8.89L48.64 8.89L48.13 8.89L48.13 8.89Q48.06 7.84 47.42 7.84L47.42 7.84L47.42 7.84Q47.05 7.84 46.53 8.17L46.53 8.17L46.53 8.17Q46.00 8.50 46.00 9.04L46.00 9.04L46.00 9.04Q46.00 9.44 46.00 11.01L46.00 11.01L46.00 11.01Q45.99 12.59 45.99 12.84L45.99 12.84L45.99 12.84Q45.99 13.27 46.24 13.40L46.24 13.40L46.24 13.40Q46.49 13.54 47.42 13.66L47.42 13.66L47.42 13.66Q47.52 13.68 47.56 13.68L47.56 13.68L47.56 14.11ZM49.42 12.42L49.42 12.42L49.42 12.42Q49.42 11.93 49.52 11.55L49.52 11.55L49.52 11.55Q49.62 11.17 49.84 10.92L49.84 10.92L49.84 10.92Q50.06 10.67 50.29 10.50L50.29 10.50L50.29 10.50Q50.51 10.33 50.92 10.21L50.92 10.21L50.92 10.21Q51.34 10.09 51.64 10.03L51.64 10.03L51.64 10.03Q51.94 9.97 52.49 9.86L52.49 9.86L52.49 9.86Q53.03 9.76 53.37 9.69L53.37 9.69L53.37 9.69Q53.37 9.49 53.38 9.20L53.38 9.20L53.38 9.20Q53.38 8.90 53.38 8.85L53.38 8.85L53.38 8.85Q53.38 8.20 52.92 7.92L52.92 7.92L52.92 7.92Q52.46 7.64 51.86 7.64L51.86 7.64L51.86 7.64Q51.16 7.64 50.90 7.97L50.90 7.97L50.90 7.97Q50.65 8.30 50.36 9.38L50.36 9.38L49.78 9.32L49.78 9.32Q49.78 9.28 49.79 9.04L49.79 9.04L49.79 9.04Q49.80 8.79 49.83 8.60L49.83 8.60L49.83 8.60Q49.87 8.41 49.95 8.12L49.95 8.12L49.95 8.12Q50.02 7.83 50.21 7.61L50.21 7.61L50.21 7.61Q50.40 7.39 50.68 7.18L50.68 7.18L50.68 7.18Q50.96 6.97 51.42 6.86L51.42 6.86L51.42 6.86Q51.88 6.75 52.49 6.75L52.49 6.75L52.49 6.75Q53.10 6.75 53.54 6.89L53.54 6.89L53.54 6.89Q53.97 7.03 54.19 7.20L54.19 7.20L54.19 7.20Q54.40 7.38 54.52 7.68L54.52 7.68L54.52 7.68Q54.64 7.98 54.66 8.16L54.66 8.16L54.66 8.16Q54.67 8.34 54.67 8.62L54.67 8.62L54.67 8.62Q54.67 9.69 54.64 10.90L54.64 10.90L54.64 10.90Q54.61 12.11 54.61 12.32L54.61 12.32L54.61 12.32Q54.61 12.67 54.93 13.17L54.93 13.17L54.93 13.17Q55.24 13.66 55.24 13.75L55.24 13.75L55.24 13.75Q55.24 13.82 55.12 13.86L55.12 13.86L55.12 13.86Q54.14 14.18 54.04 14.18L54.04 14.18L54.04 14.18Q53.90 14.18 53.78 13.98L53.78 13.98L53.78 13.98Q53.66 13.78 53.56 13.48L53.56 13.48L53.56 13.48Q53.47 13.19 53.45 13.17L53.45 13.17L53.45 13.17Q53.24 13.31 52.93 13.52L52.93 13.52L52.93 13.52Q52.63 13.73 52.51 13.81L52.51 13.81L52.51 13.81Q52.39 13.89 52.17 14L52.17 14L52.17 14Q51.95 14.11 51.79 14.15L51.79 14.15L51.79 14.15Q51.62 14.20 51.37 14.22L51.37 14.22L51.37 14.22Q51.11 14.25 50.79 14.25L50.79 14.25L50.79 14.25Q50.06 14.25 49.74 13.72L49.74 13.72L49.74 13.72Q49.42 13.19 49.42 12.42ZM50.68 12.28L50.68 12.28L50.68 12.28Q50.68 13.31 51.62 13.31L51.62 13.31L51.62 13.31Q52.44 13.31 53.28 12.61L53.28 12.61L53.28 12.61Q53.38 12.53 53.38 11.42L53.38 11.42L53.38 11.42Q53.38 10.65 53.37 10.23L53.37 10.23L53.37 10.23Q53.12 10.32 52.73 10.44L52.73 10.44L52.73 10.44Q52.35 10.57 52.19 10.63L52.19 10.63L52.19 10.63Q52.02 10.68 51.76 10.77L51.76 10.77L51.76 10.77Q51.49 10.86 51.40 10.92L51.40 10.92L51.40 10.92Q51.31 10.98 51.15 11.06L51.15 11.06L51.15 11.06Q50.99 11.14 50.95 11.22L50.95 11.22L50.95 11.22Q50.90 11.30 50.82 11.40L50.82 11.40L50.82 11.40Q50.74 11.51 50.72 11.64L50.72 11.64L50.72 11.64Q50.71 11.77 50.69 11.92L50.69 11.92L50.69 11.92Q50.68 12.07 50.68 12.28ZM55.97 10.75L55.97 10.75L55.97 10.75Q55.97 9.65 56.15 8.75L56.15 8.75L56.15 8.75Q56.25 8.33 56.64 8.01L56.64 8.01L56.64 8.01Q57.27 7.42 57.78 7.13L57.78 7.13L57.78 7.13Q58.30 6.85 58.54 6.80L58.54 6.80L58.54 6.80Q58.79 6.76 59.19 6.76L59.19 6.76L59.19 6.76Q59.74 6.76 60.33 6.87L60.33 6.87L60.33 6.87Q60.91 6.99 61.10 7.06L61.10 7.06L61.10 7.06Q61.05 7.48 61.05 9.16L61.05 9.16L60.63 9.16L60.63 9.16Q60.49 8.54 60.41 8.26L60.41 8.26L60.41 8.26Q60.34 8.01 59.81 7.87L59.81 7.87L59.81 7.87Q59.28 7.73 58.62 7.73L58.62 7.73L58.62 7.73Q57.79 7.73 57.51 8.26L57.51 8.26L57.51 8.26Q57.22 8.79 57.22 10.30L57.22 10.30L57.22 10.30Q57.22 10.99 57.29 11.47L57.29 11.47L57.29 11.47Q57.36 11.96 57.55 12.38L57.55 12.38L57.55 12.38Q57.75 12.80 58.14 13.01L58.14 13.01L58.14 13.01Q58.53 13.23 59.12 13.23L59.12 13.23L59.12 13.23Q59.54 13.23 60.02 12.98L60.02 12.98L60.02 12.98Q60.49 12.74 60.76 12.49L60.76 12.49L61.04 12.24L61.33 12.52L61.33 12.52Q61.28 12.59 61.01 12.89L61.01 12.89L61.01 12.89Q60.73 13.20 60.62 13.32L60.62 13.32L60.62 13.32Q60.51 13.44 60.23 13.68L60.23 13.68L60.23 13.68Q59.96 13.92 59.76 14.02L59.76 14.02L59.76 14.02Q59.56 14.13 59.26 14.22L59.26 14.22L59.26 14.22Q58.97 14.31 58.66 14.31L58.66 14.31L58.66 14.31Q57.93 14.31 57.15 13.89L57.15 13.89L57.15 13.89Q56.57 13.37 56.17 12.43L56.17 12.43L56.17 12.43Q55.97 11.59 55.97 10.75ZM62.08 3.75L62.05 3.29L62.05 3.29Q62.65 3.23 63.14 3.15L63.14 3.15L63.14 3.15Q63.63 3.07 63.86 3.01L63.86 3.01L63.86 3.01Q64.09 2.95 64.13 2.95L64.13 2.95L64.13 2.95Q64.39 2.95 64.39 3.16L64.39 3.16L64.39 3.25L64.39 3.56L64.39 3.77L64.37 9.98L64.37 9.98Q64.85 9.98 65.72 9.07L65.72 9.07L65.72 9.07Q66.58 8.16 66.58 7.69L66.58 7.69L66.58 7.69Q66.58 7.45 66.29 7.45L66.29 7.45L66.29 7.45Q66.16 7.45 66.09 7.37L66.09 7.37L66.09 7.37Q66.02 7.29 66.02 7.20L66.02 7.20L66.02 7.20Q66.02 6.99 66.29 6.97L66.29 6.97L66.29 6.97Q66.77 7.01 67.65 7.01L67.65 7.01L67.65 7.01Q68.50 7.01 68.98 6.97L68.98 6.97L68.98 6.97Q69.23 6.97 69.23 7.20L69.23 7.20L69.23 7.20Q69.23 7.28 69.18 7.34L69.18 7.34L69.18 7.34Q69.13 7.41 69.08 7.43L69.08 7.43L69.08 7.43Q69.02 7.45 68.95 7.47L68.95 7.47L68.95 7.47Q68.88 7.49 68.87 7.49L68.87 7.49L68.87 7.49Q68.31 7.71 67.54 8.31L67.54 8.31L67.54 8.31Q66.77 8.90 66.28 9.39L66.28 9.39L65.79 9.88L69.61 13.69L69.61 13.69Q69.78 13.86 69.78 13.97L69.78 13.97L69.78 13.97Q69.78 14.03 69.73 14.06L69.73 14.06L69.73 14.06Q69.69 14.10 69.65 14.11L69.65 14.11L69.61 14.11L69.61 14.11Q68.54 14.11 67.89 14.17L67.89 14.17L67.89 14.17Q65.77 11.66 65.36 11.22L65.36 11.22L65.36 11.22Q64.95 10.78 64.60 10.67L64.60 10.67L64.60 10.67Q64.44 10.61 64.34 10.57L64.34 10.57L64.34 10.57Q64.36 10.77 64.36 11.07L64.36 11.07L64.36 11.07Q64.36 11.52 64.34 12.07L64.34 12.07L64.34 12.07Q64.33 12.63 64.33 12.75L64.33 12.75L64.33 12.75Q64.33 12.89 64.33 12.98L64.33 12.98L64.33 12.98Q64.33 13.08 64.35 13.16L64.35 13.16L64.35 13.16Q64.37 13.24 64.38 13.29L64.38 13.29L64.38 13.29Q64.39 13.34 64.44 13.39L64.44 13.39L64.44 13.39Q64.50 13.44 64.52 13.46L64.52 13.46L64.52 13.46Q64.54 13.48 64.64 13.51L64.64 13.51L64.64 13.51Q64.74 13.54 64.78 13.54L64.78 13.54L64.78 13.54Q64.82 13.55 64.97 13.59L64.97 13.59L64.97 13.59Q65.11 13.62 65.20 13.64L65.20 13.64L65.20 14.11L62.17 14.11L62.17 13.64L62.17 13.64Q62.24 13.62 62.41 13.59L62.41 13.59L62.41 13.59Q62.58 13.55 62.62 13.54L62.62 13.54L62.62 13.54Q62.65 13.52 62.76 13.50L62.76 13.50L62.76 13.50Q62.87 13.47 62.89 13.43L62.89 13.43L62.89 13.43Q62.92 13.40 62.99 13.34L62.99 13.34L62.99 13.34Q63.06 13.29 63.06 13.21L63.06 13.21L63.06 13.21Q63.06 13.13 63.09 13.03L63.09 13.03L63.09 13.03Q63.13 12.94 63.13 12.79L63.13 12.79L63.13 12.79Q63.13 12.64 63.13 12.48L63.13 12.48L63.13 12.48Q63.14 12.32 63.14 12.08L63.14 12.08L63.14 12.08Q63.14 10.70 63.15 8.90L63.15 8.90L63.15 8.90Q63.17 7.11 63.17 6.66L63.17 6.66L63.17 6.66Q63.17 5.89 63.16 5.43L63.16 5.43L63.16 5.43Q63.15 4.96 63.08 4.61L63.08 4.61L63.08 4.61Q63.01 4.26 62.98 4.11L62.98 4.11L62.98 4.11Q62.94 3.96 62.76 3.87L62.76 3.87L62.76 3.87Q62.58 3.78 62.49 3.77L62.49 3.77L62.49 3.77Q62.40 3.77 62.08 3.75L62.08 3.75ZM70.20 10.67L70.20 10.67L70.20 10.67Q70.20 9.25 70.50 8.53L70.50 8.53L70.50 8.53Q70.73 8.01 71.58 7.40L71.58 7.40L71.58 7.40Q72.44 6.79 73.18 6.79L73.18 6.79L73.18 6.79Q73.82 6.79 74.31 6.94L74.31 6.94L74.31 6.94Q74.80 7.10 75.08 7.40L75.08 7.40L75.08 7.40Q75.36 7.70 75.54 7.99L75.54 7.99L75.54 7.99Q75.71 8.27 75.77 8.70L75.77 8.70L75.77 8.70Q75.84 9.13 75.86 9.38L75.86 9.38L75.86 9.38Q75.88 9.63 75.88 10.00L75.88 10.00L75.88 10.00Q75.88 10.12 75.88 10.18L75.88 10.18L75.88 10.18Q75.43 10.46 74.41 10.46L74.41 10.46L71.54 10.46L71.54 10.46Q71.54 10.91 71.55 11.15L71.55 11.15L71.55 11.15Q71.57 11.40 71.61 11.78L71.61 11.78L71.61 11.78Q71.65 12.17 71.77 12.38L71.77 12.38L71.77 12.38Q71.89 12.60 72.09 12.82L72.09 12.82L72.09 12.82Q72.28 13.05 72.60 13.15L72.60 13.15L72.60 13.15Q72.93 13.24 73.36 13.24L73.36 13.24L73.36 13.24Q74.58 13.24 75.59 12.25L75.59 12.25L75.89 12.57L75.89 12.57Q75.84 12.63 75.63 12.85L75.63 12.85L75.63 12.85Q75.42 13.06 75.35 13.13L75.35 13.13L75.35 13.13Q75.28 13.20 75.08 13.39L75.08 13.39L75.08 13.39Q74.89 13.58 74.78 13.65L74.78 13.65L74.78 13.65Q74.68 13.72 74.49 13.86L74.49 13.86L74.49 13.86Q74.30 14 74.16 14.06L74.16 14.06L74.16 14.06Q74.03 14.11 73.84 14.19L73.84 14.19L73.84 14.19Q73.65 14.27 73.47 14.29L73.47 14.29L73.47 14.29Q73.28 14.32 73.08 14.32L73.08 14.32L73.08 14.32Q72.24 14.32 71.64 13.99L71.64 13.99L71.64 13.99Q71.05 13.66 70.75 13.10L70.75 13.10L70.75 13.10Q70.45 12.54 70.32 11.95L70.32 11.95L70.32 11.95Q70.20 11.35 70.20 10.67ZM71.57 9.83L71.57 9.83L72.37 9.83L72.37 9.83Q74.23 9.83 74.58 9.58L74.58 9.58L74.58 9.58Q74.58 9.28 74.52 9.00L74.52 9.00L74.52 9.00Q74.47 8.72 74.33 8.41L74.33 8.41L74.33 8.41Q74.19 8.09 73.88 7.90L73.88 7.90L73.88 7.90Q73.57 7.70 73.12 7.70L73.12 7.70L73.12 7.70Q72.17 7.70 71.87 8.17L71.87 8.17L71.87 8.17Q71.57 8.64 71.57 9.83ZM80.58 14.11L76.66 14.11L76.66 13.64L76.66 13.64Q77 13.59 77.11 13.59L77.11 13.59L77.11 13.59Q77.22 13.58 77.40 13.50L77.40 13.50L77.40 13.50Q77.57 13.43 77.60 13.36L77.60 13.36L77.60 13.36Q77.63 13.30 77.69 13.09L77.69 13.09L77.69 13.09Q77.74 12.88 77.74 12.67L77.74 12.67L77.74 12.67Q77.74 12.46 77.74 12.03L77.74 12.03L77.74 11.56L77.74 11.56Q77.74 8.75 77.64 8.26L77.64 8.26L77.64 8.26Q77.55 7.77 76.97 7.73L76.97 7.73L76.97 7.73Q76.89 7.71 76.83 7.71L76.83 7.71L76.80 7.18L76.80 7.18Q77.36 7.13 77.95 6.92L77.95 6.92L77.95 6.92Q78.54 6.71 78.69 6.71L78.69 6.71L78.69 6.71Q78.88 6.71 78.95 6.87L78.95 6.87L78.95 6.87Q79.02 7.03 79.02 7.45L79.02 7.45L79.03 7.98L79.03 7.98Q80.26 6.79 80.98 6.79L80.98 6.79L80.98 6.79Q81.49 6.79 81.69 6.92L81.69 6.92L81.69 6.92Q81.89 7.04 81.89 7.38L81.89 7.38L81.89 7.38Q81.89 7.49 81.66 8.89L81.66 8.89L81.16 8.89L81.16 8.89Q81.09 7.84 80.44 7.84L80.44 7.84L80.44 7.84Q80.08 7.84 79.55 8.17L79.55 8.17L79.55 8.17Q79.03 8.50 79.03 9.04L79.03 9.04L79.03 9.04Q79.03 9.44 79.02 11.01L79.02 11.01L79.02 11.01Q79.02 12.59 79.02 12.84L79.02 12.84L79.02 12.84Q79.02 13.27 79.27 13.40L79.27 13.40L79.27 13.40Q79.52 13.54 80.44 13.66L80.44 13.66L80.44 13.66Q80.54 13.68 80.58 13.68L80.58 13.68L80.58 14.11Z"></path></g><defs data-v-fde0c5aa=""><!----></defs><g data-v-fde0c5aa="" id="3e2a86f5-8896-49e8-aeb6-1530ef004731" stroke="none" fill="#2D5151" transform="matrix(0.5215376288259661,0,0,0.5215376288259661,40.00022740860657,123.92249957297335)"><path d="M32.992 94.971h34.017L50 79.557zM65.233 60.608H34.767L50 74.415zM39.678 30.496h20.645V43.34H39.678z"></path><path d="M49.815 12.138L20 24.678 6.699 57.012c.043.183.074.367.074.554v35.229c0 1.196.979 2.177 2.177 2.177h19.127V58.867a1.74 1.74 0 0 1 1.742-1.741h40.363a1.74 1.74 0 0 1 1.741 1.741v36.104h19.128c1.196 0 2.177-.98 2.177-2.177V57.493c0-.068.014-.137.021-.204L79.652 24.633 49.815 12.138zm13.99 32.944c0 .962-.779 1.742-1.741 1.742H37.936c-.962 0-1.742-.78-1.742-1.742V28.754c0-.962.78-1.742 1.742-1.742h24.127c.962 0 1.741.78 1.741 1.742v16.328z"></path><path d="M68.44 91.128V62.843L52.836 76.985zM31.56 91.127l15.604-14.142L31.56 62.844zM99.855 54.046L86.574 21.867c-.645-1.563-2.308-3.231-3.87-3.88L52.706 5.517c-1.563-.65-3.921-.649-5.484.004L17.243 18.036c-1.561.651-3.222 2.322-3.865 3.886L.143 54.123a1.904 1.904 0 0 0 1.762 2.629c.528 0 1.028-.229 1.389-.617.151-.163.284-.346.374-.563l.326-.793L16.902 23.37c.261-.636 1.174-1.553 1.809-1.818L48.69 9.036c.632-.264 1.92-.264 2.554-.002l23.895 9.933 6.211 2.601c.397.198.857.599 1.219 1.03.007.014.02.022.025.036l13.355 32.082.057-.012.329.796a1.898 1.898 0 0 0 2.487 1.033 1.902 1.902 0 0 0 1.033-2.487z"></path></g><defs data-v-fde0c5aa=""><!----></defs><g data-v-fde0c5aa="" id="77f807e6-93bc-44ba-ba64-cfc4489de365" fill="#FFFFFF" transform="matrix(0.6634363497416218,0,0,0.6634363497416218,105.02126262443876,159.410659920982)"><path d="M7.71 2.21L0.20 2.21L0.20 3.22L3.43 3.22L3.43 11.48L4.48 11.48L4.48 3.22L7.71 3.22ZM17.09 7.92L20.31 7.92L22.55 11.48L23.80 11.48L21.36 7.74C22.40 7.50 23.60 6.90 23.60 5.11C23.60 3.35 22.39 2.21 20.48 2.21L16.04 2.21L16.04 11.48L17.09 11.48ZM17.09 3.21L20.36 3.21C21.67 3.21 22.55 3.93 22.55 5.11C22.55 6.55 21.29 6.93 20.30 6.93L17.09 6.93ZM36.57 2.21L35.25 2.21L31.32 11.48L32.48 11.48L33.61 8.79L38.21 8.79L39.34 11.48L40.50 11.48ZM34.02 7.83L35.91 3.30L37.80 7.83ZM52.47 10.57C50.22 10.57 48.96 8.93 48.96 6.85C48.96 4.76 50.22 3.12 52.47 3.12C54.00 3.12 55.01 3.85 55.48 4.98L56.59 4.98C56.00 3.29 54.49 2.10 52.39 2.10C49.60 2.10 47.91 4.21 47.91 6.85C47.91 9.48 49.60 11.59 52.39 11.59C54.49 11.59 56.00 10.40 56.59 8.71L55.48 8.71C55.01 9.84 54.00 10.57 52.47 10.57ZM72.84 2.21L71.36 2.21L66.21 7.04L66.21 2.21L65.16 2.21L65.16 11.48L66.21 11.48L66.21 8.44L68.12 6.65L71.75 11.48L73.07 11.48L68.89 5.94ZM94.91 7.81L98.78 2.21L97.51 2.21L94.37 6.72L91.24 2.21L89.96 2.21L93.86 7.81L93.86 11.48L94.91 11.48ZM110.53 2.10C107.72 2.10 105.83 4.21 105.83 6.85C105.83 9.48 107.72 11.59 110.53 11.59C113.34 11.59 115.23 9.48 115.23 6.85C115.23 4.21 113.34 2.10 110.53 2.10ZM110.53 10.57C108.28 10.57 106.88 8.93 106.88 6.85C106.88 4.76 108.28 3.12 110.53 3.12C112.78 3.12 114.18 4.76 114.18 6.85C114.18 8.93 112.78 10.57 110.53 10.57ZM130.63 2.21L130.63 7.52C130.63 9.67 129.21 10.57 127.74 10.57C126.27 10.57 124.85 9.67 124.85 7.52L124.85 2.21L123.80 2.21L123.80 7.49C123.80 9.95 125.43 11.59 127.74 11.59C130.06 11.59 131.68 9.94 131.68 7.49L131.68 2.21ZM141.89 7.92L145.11 7.92L147.35 11.48L148.60 11.48L146.16 7.74C147.20 7.50 148.40 6.90 148.40 5.11C148.40 3.35 147.18 2.21 145.28 2.21L140.84 2.21L140.84 11.48L141.89 11.48ZM141.89 3.21L145.15 3.21C146.47 3.21 147.35 3.93 147.35 5.11C147.35 6.55 146.09 6.93 145.10 6.93L141.89 6.93ZM173.88 3.22L173.88 2.21L167.19 2.21L167.19 11.48L168.24 11.48L168.24 7.46L173.26 7.46L173.26 6.44L168.24 6.44L168.24 3.22ZM185.75 2.21L184.44 2.21L180.50 11.48L181.66 11.48L182.80 8.79L187.39 8.79L188.52 11.48L189.69 11.48ZM183.20 7.83L185.09 3.30L186.98 7.83ZM198.91 7.92L202.13 7.92L204.37 11.48L205.62 11.48L203.18 7.74C204.22 7.50 205.42 6.90 205.42 5.11C205.42 3.35 204.20 2.21 202.30 2.21L197.86 2.21L197.86 11.48L198.91 11.48ZM198.91 3.21L202.17 3.21C203.49 3.21 204.37 3.93 204.37 5.11C204.37 6.55 203.11 6.93 202.12 6.93L198.91 6.93ZM222.03 2.21L218.76 6.61L215.45 2.21L214.23 2.21L214.23 11.48L215.28 11.48L215.28 3.81L218.76 8.22L222.19 3.81L222.19 11.48L223.24 11.48L223.24 2.21ZM232.25 10.05L232.25 11.48L233.60 11.48L233.60 10.05ZM233.31 8.92L233.58 2.21L232.27 2.21L232.54 8.92Z"></path></g></svg>